<svg width="424" height="84" viewBox="0 0 424 84" fill="none" xmlns="http://www.w3.org/2000/svg">
<path d="M44.8875 35.2994C45.0615 40.4814 52.2548 41.8037 54.092 36.8811C54.6327 35.3809 54.3735 33.6771 53.4104 32.3992C50.7102 28.7878 44.9208 30.6324 44.8875 35.155V35.2957V35.2994Z" fill="#FAFAFC"/>
<path d="M58.3887 35.1885C58.4035 38.6148 62.8335 40.4631 64.8263 37.3776C65.556 36.2405 65.593 34.7107 64.9781 33.5143C63.2446 30.1103 58.4516 31.2326 58.3887 35.0441V35.1922V35.1885Z" fill="#FAFAFC"/>
<path d="M58.6074 48.5719C58.774 52.3018 63.4559 53.3723 65.1746 49.9757C65.6932 48.9386 65.745 47.7236 65.3079 46.6643C63.6485 42.8973 58.5518 44.5604 58.6037 48.4237V48.5719H58.6074Z" fill="#FAFAFC"/>
<path d="M69.949 35.3438C70.086 39.27 74.979 39.922 75.1272 35.5957C75.0605 31.5879 70.1823 30.9656 69.949 35.1845V35.3438Z" fill="#FAFAFC"/>
<path d="M45.1136 48.8833C45.1877 52.5577 49.5732 54.7135 52.5327 52.5503C54.5329 51.202 55.1996 48.287 53.9366 46.2201C51.4252 42.0198 45.0765 43.9829 45.1099 48.7426V48.8833H45.1136Z" fill="#FAFAFC"/>
<path d="M46.3544 61.243C46.6025 65.0359 52.1734 65.3026 53.2216 61.7837C53.3513 61.3689 53.3846 60.8837 53.3365 60.4985C52.7068 56.3611 46.4173 57.0426 46.3544 61.1059V61.2393V61.243Z" fill="#FAFAFC"/>
<path d="M46.5321 71.5435C46.8432 74.7993 52.603 74.3993 52.7474 71.1138C52.6141 67.5505 46.5987 68.0802 46.5247 71.4213V71.5435H46.5321Z" fill="#FAFAFC"/>
<path d="M32.0419 35.6004C32.1604 40.0822 37.9313 41.8453 40.5945 38.2561C41.739 36.7597 41.8724 34.5818 40.8871 32.9742C38.3758 28.8294 32.0604 30.737 32.0382 35.4596V35.6004H32.0419Z" fill="#FAFAFC"/>
<path d="M33.0126 23.4397C33.0274 26.2214 36.5462 27.6586 38.7464 26.114C40.2947 25.1584 40.8984 22.9656 39.8798 21.421C38.0389 18.48 33.0718 19.8098 33.0126 23.3027V23.4397Z" fill="#FAFAFC"/>
<path d="M33.6015 61.2429C33.82 65.1284 39.6983 65.9322 40.8614 62.1652C41.1503 61.191 40.954 60.1317 40.3502 59.2908C38.3982 56.5054 33.6015 57.6166 33.5978 61.1058V61.2392L33.6015 61.2429Z" fill="#FAFAFC"/>
<path d="M45.5691 23.0388C45.6061 26.0946 49.6732 27.6651 51.8548 25.6057C53.1179 24.4982 53.2846 22.4795 52.266 21.1571C50.3695 18.4606 45.6395 19.4977 45.5691 22.9054V23.0425V23.0388Z" fill="#FAFAFC"/>
<path d="M34.0607 13.9756C34.2755 16.9277 39.3759 16.561 39.3796 13.6385C39.1796 10.642 34.1607 11.0531 34.0607 13.8497V13.9756Z" fill="#FAFAFC"/>
<path d="M32.2493 49.0085C32.3938 53.2348 37.8387 55.2275 40.6167 51.9976C41.9946 50.4642 42.1465 48.0343 41.0093 46.3268C38.4498 42.3486 32.216 44.1043 32.2419 48.8677V49.0085H32.2493Z" fill="#FAFAFC"/>
<path d="M21.1114 48.9353C21.1817 52.3578 25.6229 54.1172 27.6008 51.0577C28.3268 49.9317 28.3713 48.413 27.7675 47.2241C26.0303 43.7682 21.1225 44.9239 21.1077 48.7909V48.939L21.1114 48.9353Z" fill="#FAFAFC"/>
<path d="M20.9002 35.6554C21.0409 39.5891 26.0784 40.4558 27.6452 36.9073C28.1897 35.6739 28.086 34.2034 27.297 33.0959C25.2117 30.1956 20.8705 32.1032 20.8965 35.5072V35.6517L20.9002 35.6554Z" fill="#FAFAFC"/>
<path d="M11.2032 48.704C11.4181 52.671 16.3222 53.1266 16.4667 48.9077C16.3889 44.8185 11.3588 44.2443 11.2032 48.5447V48.704Z" fill="#FAFAFC"/>
<path d="M63.3261 24.5693C63.1483 27.388 59.3109 26.7621 59.2146 24.2174C59.2479 21.3505 63.1779 21.8691 63.3224 24.4322V24.573L63.3261 24.5693Z" fill="#FAFAFC"/>
<path d="M22.5783 25.2065C22.8635 27.9994 26.7861 27.2919 26.7453 24.725C26.5675 21.91 22.6301 22.4952 22.5746 25.0695V25.2103L22.5783 25.2065Z" fill="#FAFAFC"/>
<path d="M63.7854 60.1536C63.7187 62.6094 59.9443 63.3428 59.6999 60.587C59.6184 58.009 63.5335 57.2201 63.7854 60.0129V60.1536Z" fill="#FAFAFC"/>
<path d="M82.087 36.1109C81.9537 39.2149 79.3275 38.3259 79.2683 35.7331C79.1609 34.7404 79.7609 33.1662 80.9425 33.6885C81.6759 34.0403 82.05 35.1108 82.0833 35.9294V36.1109H82.087Z" fill="#FAFAFC"/>
<path d="M74.5051 47.6945C74.4273 50.391 71.2048 50.7836 71.0529 47.9723C70.9937 45.2906 74.2569 44.5942 74.5051 47.5352V47.6945Z" fill="#FAFAFC"/>
<path d="M82.0316 47.0306C82.0167 49.3197 79.7758 50.0457 79.6276 47.3899C79.5387 44.9934 81.8315 44.0748 82.0316 46.8491V47.0306Z" fill="#FAFAFC"/>
<path d="M73.3382 25.5765C73.1085 28.3323 69.9082 27.0878 69.9193 24.9098C70.0453 22.1355 73.2307 23.2022 73.3345 25.4284V25.5765H73.3382Z" fill="#FAFAFC"/>
<path d="M80.7241 27.065C80.7833 27.9836 80.1722 28.7503 79.3314 28.2021C78.6202 27.7465 78.2387 26.6353 78.3017 25.8093C78.3017 25.1315 78.8943 24.5351 79.5647 24.9018C80.2055 25.1685 80.6796 26.2501 80.713 26.8983L80.7241 27.0687V27.065Z" fill="#FAFAFC"/>
<path d="M73.6641 58.8277C73.6641 60.9723 70.5564 62.2094 70.312 59.524C70.186 57.3127 73.3752 55.9422 73.6641 58.6795V58.8314V58.8277Z" fill="#FAFAFC"/>
<path d="M80.9128 57.1415C80.8943 58.0082 80.0016 59.5121 79.1608 59.2417C78.5941 59.0898 78.5015 58.2675 78.557 57.8045C78.6496 56.9341 79.1645 55.8303 80.0609 55.671C80.7646 55.5747 80.9684 56.5044 80.9239 56.9748L80.9128 57.1415Z" fill="#FAFAFC"/>
<path d="M15.3516 36.2817C15.2886 38.9819 11.9365 39.3634 11.8068 36.5558C11.7513 33.9074 15.0923 33.2444 15.3516 36.1261V36.2817Z" fill="#FAFAFC"/>
<path d="M15.8665 25.8619C15.8665 28.151 12.6144 29.1992 12.407 26.5101C12.3033 24.2173 15.5554 22.9839 15.8665 25.7138V25.8619Z" fill="#FAFAFC"/>
<path d="M50.951 13.6905C50.8844 16.0204 46.7914 15.887 46.6581 13.535C46.7025 11.1496 50.7362 11.3422 50.9436 13.5683L50.951 13.6942V13.6905Z" fill="#FAFAFC"/>
<path d="M62.0075 14.5275C61.8334 16.9017 58.1664 16.0498 58.1331 13.957C58.2627 11.5568 61.8741 12.3939 62.0001 14.4015V14.5312L62.0075 14.5275Z" fill="#FAFAFC"/>
<path d="M23.4227 15.1385C23.6931 17.4757 27.3934 16.5571 27.3416 14.4421C27.123 12.0345 23.4561 12.9531 23.4227 15.0125V15.1385Z" fill="#FAFAFC"/>
<path d="M71.464 16.2616C71.4566 17.132 70.6788 17.5876 69.7009 17.2061C68.912 16.8913 68.2675 16.1023 68.2045 15.2504C68.123 14.2688 69.0972 13.7799 69.9639 14.1911C70.7121 14.4911 71.4085 15.2911 71.4603 16.132V16.2653L71.464 16.2616Z" fill="#FAFAFC"/>
<path d="M17.111 16.1132C17.1147 16.9281 16.3591 17.8949 15.559 18.1431C14.6589 18.4838 13.807 18.043 13.8107 17.117C13.8107 16.1058 14.5996 15.1947 15.5479 14.9465C16.3442 14.7131 17.0999 15.1984 17.1073 15.9799V16.1132H17.111Z" fill="#FAFAFC"/>
<path d="M62.7522 70.018C62.6892 71.9367 59.1852 72.896 58.9148 70.6551C58.837 68.5253 62.5225 67.5956 62.7522 69.8921V70.018Z" fill="#FAFAFC"/>
<path d="M35.4683 71.4803C35.6349 73.6434 39.5649 73.8064 39.7131 71.584C39.7168 69.2171 35.5794 69.0726 35.4683 71.358V71.4803Z" fill="#FAFAFC"/>
<path d="M24.3526 70.6327C24.4823 72.5403 28.0826 73.3366 28.2678 71.1105C28.3048 68.9251 24.4712 68.1955 24.3452 70.5068L24.3526 70.6327Z" fill="#FAFAFC"/>
<path d="M71.9934 68.0402C71.9489 68.7995 71.197 69.6996 70.4599 69.9478C69.7006 70.2811 68.8264 69.8737 68.8524 69.0625C68.8598 67.9772 69.8191 66.9549 70.8822 66.8512C71.5341 66.7845 72.0341 67.3364 72.0008 67.9068L71.9934 68.0402Z" fill="#FAFAFC"/>
<path d="M85.6059 36.5781C85.6911 37.5004 85.2058 38.8042 84.5058 37.5522C84.2761 37.0892 84.1835 36.4262 84.1798 35.8854C84.1872 35.452 84.2465 34.626 84.7206 34.5557C85.3836 34.6372 85.5429 35.8817 85.591 36.3743L85.6022 36.5781H85.6059Z" fill="#FAFAFC"/>
<path d="M85.7319 46.4816C85.7134 46.9372 85.6282 47.3927 85.5059 47.7039C85.1615 48.5595 84.6429 48.4928 84.4355 47.7743C84.3318 47.4187 84.317 46.9483 84.3318 46.5593C84.4096 44.5147 85.7208 43.8739 85.7319 46.2704V46.4779V46.4816Z" fill="#FAFAFC"/>
<path d="M3.9987 37.3101C4.1876 39.9326 6.51744 39.1214 6.49151 36.9101C6.53596 36.1359 6.09888 34.9692 5.18769 35.1173C4.38392 35.2914 4.00981 36.3545 3.995 37.136V37.3101H3.9987Z" fill="#FAFAFC"/>
<path d="M3.97665 48.3227C4.0285 49.245 4.43595 50.2562 5.25083 50.5785C6.50279 51.0008 7.03987 49.2376 6.89171 48.3153C6.6917 45.6892 4.03961 45.2151 3.96924 48.1449V48.3227H3.97665Z" fill="#FAFAFC"/>
<path d="M4.82483 28.2663C4.78779 29.7109 6.15828 29.948 6.86575 28.7331C7.16578 28.2589 7.33616 27.5255 7.2769 26.9811C7.23245 26.2143 6.61388 25.6217 5.88418 26.0699C5.28043 26.3847 4.83594 27.4552 4.82854 28.1034V28.2663H4.82483Z" fill="#FAFAFC"/>
<path d="M5.53606 58.305C5.56939 59.0088 5.99536 59.8977 6.59541 60.2681C7.5066 60.8719 8.11776 60.0015 8.05109 59.1718C8.03627 58.4347 7.64735 57.5383 7.051 57.1494C6.10277 56.5011 5.47679 57.3383 5.53235 58.142L5.53976 58.3087L5.53606 58.305Z" fill="#FAFAFC"/>
<path d="M0.00216019 37.9853C-0.0385841 38.8039 0.502204 40.1114 1.18745 38.9558C1.44673 38.4594 1.53192 37.7112 1.50229 37.1223C1.50229 36.5667 1.17634 35.4444 0.550356 36.0074C0.172545 36.3259 -0.00524786 37.3408 0.00586422 37.7853V37.9853H0.00216019Z" fill="#FAFAFC"/>
<path d="M0.217106 47.8682C0.294891 48.572 0.409716 49.535 1.07644 49.761C1.84688 49.7202 1.78391 48.2608 1.71724 47.7682C1.50611 45.9014 0.16525 45.6088 0.209698 47.6682L0.217106 47.8682Z" fill="#FAFAFC"/>
<path d="M50.1066 5.8315C49.8362 7.63165 46.3174 7.31681 46.1322 5.60926C46.3026 3.79058 49.8362 4.07209 50.1029 5.72778V5.8352L50.1066 5.8315Z" fill="#FAFAFC"/>
<path d="M60.3371 6.98564C60.0667 8.74876 56.7368 7.80053 56.696 6.27077C56.9035 4.50395 60.1926 5.44106 60.3297 6.87823V6.98564H60.3371Z" fill="#FAFAFC"/>
<path d="M34.631 6.05191C34.9532 8.1595 39.0943 7.72613 39.1943 5.70374C38.9091 3.62948 34.8977 4.0147 34.6347 5.9445V6.05191H34.631Z" fill="#FAFAFC"/>
<path d="M24.6559 7.54146C25.0893 9.28606 28.3155 8.24523 28.297 6.71917C27.9784 4.93754 24.7041 5.90799 24.6522 7.43405V7.54146H24.6559Z" fill="#FAFAFC"/>
<path d="M49.2027 0.993249C48.91 2.1415 45.7913 1.83036 45.5542 0.789527C45.5986 -0.406872 49.0138 -0.143887 49.199 0.91176V0.993249H49.2027Z" fill="#FAFAFC"/>
<path d="M35.3981 1.14515C35.6981 2.2971 38.8465 1.97115 38.9984 0.882162C38.8836 -0.336462 35.6092 0.0117166 35.4018 1.06736V1.14885L35.3981 1.14515Z" fill="#FAFAFC"/>
<path d="M51.6066 77.8296C51.2436 75.7184 47.1321 76.1999 47.0618 78.226C47.3803 80.3262 51.3733 79.915 51.6066 77.9371V77.8296Z" fill="#FAFAFC"/>
<path d="M61.4778 76.3773C61.2408 74.7142 57.8553 75.5772 57.9035 77.1959C58.1887 79.0071 61.363 77.9478 61.4778 76.4847V76.3773Z" fill="#FAFAFC"/>
<path d="M35.9349 78.1044C36.2127 76.2821 39.8168 76.571 39.9612 78.3193C39.7501 80.1083 36.1831 79.9046 35.9349 78.2118V78.1044Z" fill="#FAFAFC"/>
<path d="M25.6229 76.9478C25.9081 75.1291 29.2529 76.0847 29.2714 77.6108C29.0566 79.4147 25.7785 78.5331 25.6266 77.0552V76.9478H25.6229Z" fill="#FAFAFC"/>
<path d="M50.651 82.8068C50.3991 81.6475 47.3136 81.992 47.1062 83.092C47.1729 84.3255 50.462 83.9403 50.6472 82.8883V82.8068H50.651Z" fill="#FAFAFC"/>
<path d="M36.4537 82.9967C36.6797 81.841 40.1318 82.104 40.3096 83.2338C40.1615 84.3783 36.6093 84.1709 36.4537 83.0745V82.9967Z" fill="#FAFAFC"/>
<path d="M18.1667 69.8542C18.1778 70.5246 17.6592 70.9543 17.0369 70.9246C15.9665 70.8802 14.9923 69.9727 14.8812 68.9171C14.7552 67.8651 15.8331 67.428 16.7184 67.854C17.4555 68.154 18.0926 68.9134 18.163 69.7245V69.8542H18.1667Z" fill="#FAFAFC"/>
<path d="M16.5665 60.4028C16.3516 63.1216 13.1365 61.9548 13.1106 59.7768C13.018 58.7249 13.8959 57.8619 14.9404 58.1619C15.8219 58.3693 16.5183 59.3361 16.5627 60.2547V60.4028H16.5665Z" fill="#FAFAFC"/>
<path d="M23.2043 60.8206C23.3524 63.2616 27.1861 63.8209 27.3565 61.1022C27.3713 58.476 23.3747 57.8722 23.2006 60.6836V60.8244L23.2043 60.8206Z" fill="#FAFAFC"/>
<path d="M153.941 45.0119V64.2692H149.367V45.0119C149.367 39.5004 145.292 35.4963 139.681 35.4963C134.069 35.4963 129.31 39.767 129.31 45.0119V64.2692H124.739V32.0479H128.721L129.243 36.263C131.139 33.8665 135.229 31.4219 140.162 31.4219C148.274 31.4219 153.941 37.0075 153.941 45.0119Z" fill="#FAFAFC"/>
<path d="M166.883 26.8803V32.0474H174.614V36.1255H166.883V64.2687H162.242V36.1255H156.771V32.0474H162.242V26.2506C162.242 22.8355 164.613 20.7168 168.428 20.7168H174.614V24.7949H169.113C167.635 24.7949 166.883 25.495 166.883 26.8803Z" fill="#FAFAFC"/>
<path d="M192.156 31.4219C182.666 31.4219 175.777 38.4595 175.777 48.1604C175.777 57.8612 182.666 64.8988 192.156 64.8988C201.646 64.8988 208.468 57.8575 208.468 48.1604C208.468 38.4632 201.608 31.4219 192.156 31.4219ZM203.827 48.1604C203.827 55.498 198.919 60.8207 192.156 60.8207C185.392 60.8207 180.418 55.498 180.418 48.1604C180.418 40.8227 185.355 35.4963 192.156 35.4963C198.956 35.4963 203.827 40.8227 203.827 48.1604Z" fill="#FAFAFC"/>
<path d="M231.73 32.0479V36.126H225.407C220.992 36.126 218.458 38.5151 218.458 42.6821V64.2692H213.887V32.0479H217.851L218.369 35.0296C219.788 33.1813 221.455 32.0479 224.929 32.0479H231.73Z" fill="#FAFAFC"/>
<path d="M283.945 44.0674V64.2692H279.308V44.0674C279.308 38.8633 276.096 35.4963 271.126 35.4963C266.155 35.4963 262.258 39.3411 262.258 44.0674V64.2692H257.621V44.0674C257.621 38.8633 254.409 35.4963 249.439 35.4963C244.468 35.4963 240.571 39.4226 240.571 44.0674V64.2692H236V32.0479H239.978L240.501 35.9593C242.242 33.7925 245.638 31.4219 249.916 31.4219C255.246 31.4219 258.884 34.3703 260.24 37.4076C261.925 34.574 265.825 31.4219 271.603 31.4219C278.871 31.4219 283.945 36.6223 283.945 44.0674Z" fill="#FAFAFC"/>
<path d="M305.236 31.4219C295.746 31.4219 288.857 38.4595 288.857 48.1604C288.857 57.8612 295.746 64.8988 305.236 64.8988C314.725 64.8988 321.548 57.8575 321.548 48.1604C321.548 38.4632 314.688 31.4219 305.236 31.4219ZM316.907 48.1604C316.907 55.498 311.999 60.8207 305.236 60.8207C298.472 60.8207 293.498 55.498 293.498 48.1604C293.498 40.8227 298.435 35.4963 305.236 35.4963C312.036 35.4963 316.907 40.8227 316.907 48.1604Z" fill="#FAFAFC"/>
<path d="M333.042 36.1263V58.106C333.042 59.4913 333.794 60.1914 335.272 60.1914H341.458V64.2695H334.59C330.771 64.2695 328.405 62.1508 328.405 58.7357V36.1263H322.93V32.0482H328.405V23.2363H333.042V32.0482H341.458V36.1263H333.042Z" fill="#FAFAFC"/>
<path d="M373.516 31.4219C364.026 31.4219 357.137 38.4595 357.137 48.1604C357.137 57.8612 364.026 64.8988 373.516 64.8988C383.006 64.8988 389.828 57.8575 389.828 48.1604C389.828 38.4632 382.969 31.4219 373.516 31.4219ZM385.187 48.1604C385.187 55.498 380.279 60.8207 373.516 60.8207C366.752 60.8207 361.778 55.498 361.778 48.1604C361.778 40.8227 366.715 35.4963 373.516 35.4963C380.317 35.4963 385.187 40.8227 385.187 48.1604Z" fill="#FAFAFC"/>
<path d="M423.705 45.0119V64.2692H419.135V45.0119C419.135 39.5004 415.06 35.4963 409.445 35.4963C403.83 35.4963 399.077 39.767 399.077 45.0119V64.2692H394.503V32.0479H398.485L399.007 36.2593C400.903 33.8665 404.996 31.4219 409.926 31.4219C418.038 31.4219 423.705 37.0075 423.705 45.0119Z" fill="#FAFAFC"/>
<path d="M117.816 32.0479H113.242V64.2692H117.816V32.0479Z" fill="#FAFAFC"/>
<path d="M115.527 25.8996C117.403 25.8996 118.924 24.3789 118.924 22.503C118.924 20.6271 117.403 19.1064 115.527 19.1064C113.651 19.1064 112.13 20.6271 112.13 22.503C112.13 24.3789 113.651 25.8996 115.527 25.8996Z" fill="#FAFAFC"/>
<path d="M352.466 32.0479H347.891V64.2692H352.466V32.0479Z" fill="#FAFAFC"/>
<path d="M350.181 25.9026C352.057 25.9026 353.577 24.3818 353.577 22.506C353.577 20.6301 352.057 19.1094 350.181 19.1094C348.305 19.1094 346.784 20.6301 346.784 22.506C346.784 24.3818 348.305 25.9026 350.181 25.9026Z" fill="#FAFAFC"/>
</svg>
